<svg version="1.1" id="Layer_1" xmlns="http://www.w3.org/2000/svg" xmlns:xlink="http://www.w3.org/1999/xlink" x="0px" y="0px"
	 width="1000px" height="1000px" viewBox="0 0 1000 1000" enable-background="new 0 0 1000 1000" xml:space="preserve">
<path fill-rule="evenodd" clip-rule="evenodd"  fill="#FFFFFF" d="M499.998,963.059L299.496,847.291L98.98,731.521v-29.114V500V318.146v-49.678
	l200.516-115.771L499.998,36.94c0,132.035,0.064,264.082,0.064,396.085h-82.484V267.71L378.8,290.093l-110.506,63.813V646.1
	L378.8,709.904l38.778,22.387v-165.33h82.484C500.062,698.966,499.998,831.025,499.998,963.059"/>
<path fill-rule="evenodd" clip-rule="evenodd" fill="#929496" d="M499.998,36.94L700.51,152.709l200.51,115.751v49.685V500v202.406
	v29.114L700.51,847.291L499.998,963.059c0-132.033,0.064-264.093,0.064-396.098h82.472c0,55.097-0.13,110.217-0.13,165.33
	l38.789-22.387l110.509-63.812V353.899l-110.509-63.807l-38.789-22.383c0,55.109,0.13,110.231,0.13,165.328h-82.472
	C500.062,301.016,499.998,168.976,499.998,36.94"/>
</svg>
