<svg id="Layer_1" data-name="Layer 1" xmlns="http://www.w3.org/2000/svg" viewBox="0 0 802.04 926.12"><defs><style>.cls-1{fill:#353535;}.cls-1,.cls-2{fill-rule:evenodd;}.cls-2{fill:#929496;}</style></defs><title>hd-logo-dark</title><path class="cls-1" d="M500,963.06,299.49,847.29,99,731.52v-463L299.49,152.7,500,36.94Q500,235,500.06,433H417.57V267.71L378.8,290.09,268.29,353.91V646.1L378.8,709.9l38.77,22.39V567h82.49q0,198-.07,396.1" transform="translate(-98.98 -36.94)"/><path class="cls-2" d="M500,36.94,700.51,152.71,901,268.46V731.52L700.51,847.29,500,963.06q0-198,.06-396.1h82.47q0,82.65-.13,165.33l38.79-22.39L731.7,646.09V353.9L621.19,290.09,582.4,267.71q0,82.67.13,165.33H500.06q0-198-.06-396.1" transform="translate(-98.98 -36.94)"/></svg>